<?xml version="1.0" encoding="utf-8"?>
<!-- Generator: Adobe Illustrator 21.0.0, SVG Export Plug-In . SVG Version: 6.00 Build 0)  -->
<svg version="1.1" id="Capa_1" xmlns="http://www.w3.org/2000/svg" xmlns:xlink="http://www.w3.org/1999/xlink" x="0px" y="0px"
	 viewBox="0 0 204 207" style="enable-background:new 0 0 204 207;" xml:space="preserve">
<style type="text/css">
	.st0{fill:#FFFFFF;}
</style>
<g>
	<path class="st0" d="M203.2,91.4C197.1,38.6,150.9-2.7,95,0.1C44.5,2.7,8.9,40.2,0.2,77.7c3.2-10.4,8.2-20,14.9-28.6
		c6.7-8.6,14.7-15.7,24.1-21.4c9.3-5.6,19.4-9.4,30.1-11.3c10.7-1.9,21.5-1.9,32.2,0.2c40.8,7.8,71.3,43.3,71.8,85.8
		c0.5,42.8-29.5,79.1-70.1,87.6c-20.4,4.3-40,1.8-58.5-7.7c-22.2-11.4-36.8-29.3-44.6-53c12.5,49.3,61.6,85.5,117.6,76.2
		C170.5,196.8,209.7,147.8,203.2,91.4z"/>
	<path class="st0" d="M83.2,100.1c0.1-0.7,0.3-1.4,0.3-2.1c0-2.9,0.1-5.8,0-8.6c0-1-0.3-2.1-0.6-3.1c-0.3-1.2-1.1-2-2.3-2.3
		c-0.2-0.1-0.5-0.1-0.7-0.2c-1.5-0.4-3.1-0.5-4.7-0.5c-3.4,0-6.9,0-10.3,0c-0.2,0-0.4,0-0.6,0.1c0,13.3,0,26.5,0,39.7
		c0.9,0.1,7.8,0.1,8.4-0.1c0-5.2,0-10.4,0-15.6c0.4,0,0.7,0,1.1,0c0.8,0.1,1.2,0.5,1.3,1.3c0.1,0.4,0.1,0.8,0.1,1.2
		c0,4.1,0,8.3,0,12.4c0,0.3,0,0.6,0,0.8c1.5,0.1,7.8,0.1,8.3-0.1c0-0.2,0-0.4,0-0.6c0-4,0-8,0-12.1c0-1.1,0-2.2-0.3-3.3
		c-0.4-1.4-1.2-2.4-2.5-3c-0.3-0.1-0.6-0.3-1-0.4c0.5-0.3,0.9-0.5,1.3-0.7C82.3,102.3,83,101.3,83.2,100.1z M73.2,99.9
		c-0.1,0-0.3,0-0.5-0.1c0-3.4,0-6.8,0-10.2c0.5,0,0.9,0,1.3,0c0.7,0.1,0.9,0.3,1,1c0.1,0.4,0.1,0.8,0.1,1.2c0,2.1,0,4.1,0,6.2
		C75.2,99.6,74.8,100,73.2,99.9z"/>
	<path class="st0" d="M106.3,104.3c0.1,0,0.1,0,0.2,0c1.3,6.2,2.7,12.5,4.1,18.7c2.6,0,5.2,0,7.8,0c0-0.1,0-0.2,0.1-0.3
		c0-13,0-26,0-39c0-0.1,0-0.2,0-0.3c0,0,0,0,0-0.1c0,0,0,0-0.1,0c-2.4,0-4.7,0-7.1,0c0,6.6,0,13.1,0,19.6c-0.1,0-0.1,0-0.2,0
		c-1.3-6.5-2.7-13.1-4-19.6c-2.6,0-5.2,0-7.8,0c0,13.3,0,26.5,0,39.8c2.4,0,4.8,0,7.2,0C106.3,116.8,106.3,110.5,106.3,104.3z"/>
	<path class="st0" d="M141.2,91.2c0-0.9,0-1.9-0.1-2.8c-0.1-0.8-0.3-1.6-0.5-2.4c-0.3-1.3-1.2-2-2.4-2.4c-0.5-0.1-0.9-0.2-1.4-0.3
		c-2.4-0.4-4.9-0.4-7.4-0.3c-1.2,0.1-2.5,0.2-3.7,0.4c-2,0.3-3,1.5-3.4,3.5c-0.2,1.4-0.3,2.8-0.3,4.1c0,8,0,16,0,24.1
		c0,1.6,0.1,3.2,0.5,4.8c0.4,1.5,1.3,2.5,2.8,2.8c0.3,0.1,0.6,0.1,0.9,0.2c2.6,0.5,5.1,0.5,7.7,0.3c1.3-0.1,2.5-0.3,3.8-0.5
		c1.8-0.3,2.8-1.4,3.2-3.2c0-0.1,0-0.2,0.1-0.3c0.3-1.4,0.4-2.8,0.4-4.2c0-4,0-8,0-12C141.2,99.2,141.2,95.2,141.2,91.2z
		 M132.7,115.7c-0.1,0.7-0.5,1.1-1.1,1.1c-0.7,0-1.1-0.3-1.2-1c-0.1-0.3-0.1-0.6-0.1-0.9c0-8,0-16,0-24c0-0.1,0-0.3,0-0.4
		c0.1-0.6,0.5-1,1-1c0.7,0,1.2,0.2,1.3,0.9c0.1,0.4,0.1,0.8,0.1,1.2c0,3.9,0,7.8,0,11.8c0,3.9,0,7.8,0,11.7
		C132.7,115.3,132.7,115.5,132.7,115.7z"/>
	<path class="st0" d="M35.6,96.7c2.8,0,5.5,0,8.3,0c0-0.1,0.1-0.3,0.1-0.4c0-2.5,0-5-0.1-7.5c0-1.2-0.3-2.4-0.8-3.5
		c-0.3-0.7-0.8-1.3-1.6-1.5c-0.6-0.2-1.3-0.4-2-0.5c-2.4-0.4-4.8-0.4-7.1-0.3c-1.5,0-3,0.2-4.5,0.5c-1.5,0.4-2.4,1.3-2.7,2.7
		c-0.4,1.5-0.5,2.9-0.5,4.4c0,8.3,0,16.6,0,24.9c0,1.3,0.2,2.6,0.4,3.9c0.3,1.8,1.3,3,3.3,3.4c0.2,0,0.3,0.1,0.5,0.1
		c2.6,0.5,5.1,0.5,7.7,0.3c1.3-0.1,2.7-0.3,4-0.5c1.6-0.3,2.6-1.3,2.9-2.9c0.2-1.1,0.4-2.3,0.5-3.5c0.1-3.2,0-6.5,0-9.7
		c0-0.2,0-0.3-0.1-0.5c-2.8,0-5.5,0-8.3,0c0,0.3,0,0.6,0,0.9c0,2.7,0,5.3,0,8c0,0.3,0,0.6-0.1,0.9c-0.1,0.6-0.6,0.9-1.2,0.9
		c-0.6,0-1-0.3-1.1-0.9c-0.1-0.5-0.1-1.1-0.1-1.6c0-4.6,0-9.3,0-13.9c0-2.9,0-5.7,0-8.6c0-0.5,0-1,0.1-1.5c0.1-0.6,0.4-0.9,1-0.9
		c0.7,0,1.2,0.2,1.3,0.8c0.1,0.4,0.1,0.9,0.1,1.3c0,1.5,0,2.9,0,4.4C35.6,96.2,35.6,96.4,35.6,96.7z"/>
	<path class="st0" d="M146.6,105.6c-0.8,4.9-1.6,9.9-2.4,14.8c-0.1,0.9-0.3,1.7-0.4,2.7c2.7,0,5.3,0,7.9,0
		c0.6-5.6,1.3-11.2,1.9-16.7c0.1,0,0.1,0,0.2,0c0.7,5.6,1.2,11.1,1.9,16.7c2.8,0,5.5,0,8.3,0c-0.1-0.5-0.1-1-0.2-1.4
		c-1.1-6.5-2.3-12.9-3.4-19.4c0-0.2-0.1-0.4,0-0.6c0.8-5.3,1.7-10.6,2.5-15.9c0.1-0.8,0.2-1.6,0.4-2.4c-0.9-0.2-6.9-0.1-7.5,0
		c-0.5,4.5-1,9-1.5,13.5c-0.1,0-0.1,0-0.2,0c-0.6-4.5-1.3-9-1.9-13.5c-1.1-0.2-7.6-0.1-8.2,0.1c0,0.2,0,0.4,0.1,0.6
		c0.3,1.8,0.6,3.6,0.9,5.4c0.7,4.1,1.4,8.1,2.1,12.2c0,0.3,0,0.6,0,0.9C147,103.5,146.8,104.5,146.6,105.6z"/>
	<path class="st0" d="M9.7,123.1c0.2-2.7,0.4-5.2,0.7-7.8c0.8-0.2,2.9-0.1,3.4,0c0.2,2.5,0.4,5.1,0.6,7.7c2.7,0,5.2,0,7.8,0
		c0.1-0.7-4.9-39.1-5.1-39.8c-1-0.1-9.5-0.1-10.1,0.1c-0.3,1.4-5.1,39.1-5,39.8C4.6,123.1,7.1,123.1,9.7,123.1z M12.2,94
		c0.4,4.9,0.8,9.8,1.2,14.6c-0.5,0.2-1.5,0.2-2.5,0.1C10.8,108.1,11.9,94.8,12.2,94z"/>
	<path class="st0" d="M60.7,89.6c0.2-0.9,0.1-5.8,0-6.3c-1-0.1-12.7-0.1-13.2,0.1c0,13.2,0,26.4,0,39.7c4.4,0,8.8,0,13.3,0
		c0-2.1,0-4.2,0-6.3c-1.7-0.1-3.3,0-5-0.1c0-4.1,0-8.1,0-12.2c1.7-0.1,3.3,0,4.9,0c0.1-1.2,0.1-5.8-0.1-6.4c-0.8,0-1.6,0-2.4,0
		c-0.8,0-1.6,0-2.4,0c-0.2-1.4-0.1-7.7,0.1-8.3C57.5,89.6,59.1,89.6,60.7,89.6z"/>
	<path class="st0" d="M95.4,83.2c-2.8,0-5.5,0-8.3,0c0,13.3,0,26.5,0,39.7c0.8,0.2,7.7,0.1,8.3,0C95.4,109.7,95.4,96.5,95.4,83.2z"
		/>
</g>
</svg>
